<svg xmlns="http://www.w3.org/2000/svg" width="888" height="200" viewBox="0 0 888 200">
  <path fill="none" d="M230.216 159.003h427.569v34.52H230.216z"/>
  <path fill="#85C1D3" d="M254.446 192.846c-.36.27-.81.359-1.215.359-.72 0-1.44-.359-1.89-1.035l-14.714-21.148V191c0 1.215-.99 2.205-2.205 2.205s-2.25-.99-2.25-2.205v-27.045c-.09-.854.27-1.709 1.035-2.203a2.213 2.213 0 0 1 3.105.674l14.669 21.779v-20.564c0-1.26 1.035-2.25 2.25-2.25s2.205.99 2.205 2.25v27a2.194 2.194 0 0 1-.99 2.205zm3.511-11.026c0-6.254 5.085-11.295 11.294-11.295a11.273 11.273 0 0 1 11.294 11.295c0 6.209-5.04 11.295-11.294 11.295-6.209 0-11.294-5.086-11.294-11.295zm4.455 0c0 3.734 3.06 6.84 6.839 6.84s6.84-3.105 6.84-6.84c0-3.779-3.06-6.84-6.84-6.84s-6.839 3.061-6.839 6.84zm34.333-9.045c0 1.215-.99 2.25-2.25 2.25a6.837 6.837 0 0 0-6.839 6.84v9.045c0 1.215-.99 2.25-2.205 2.25a2.257 2.257 0 0 1-2.25-2.25v-9.045c0-6.254 5.085-11.295 11.294-11.295 1.26 0 2.25.991 2.25 2.205zm18.044 0c0 1.215-.99 2.25-2.25 2.25h-3.195v15.885c0 1.215-.99 2.25-2.25 2.25-1.215 0-2.205-1.035-2.205-2.25v-15.885h-3.24c-1.215 0-2.205-1.035-2.205-2.25s.99-2.205 2.205-2.205h3.24v-9c0-1.215.99-2.205 2.205-2.205 1.26 0 2.25.99 2.25 2.205v9h3.195c1.26 0 2.25.991 2.25 2.205zm22.589 7.651v10.439c0 1.26-1.035 2.25-2.25 2.25s-2.205-.99-2.205-2.25v-10.439c0-3.016-2.475-5.445-5.49-5.445a5.435 5.435 0 0 0-5.445 5.445v10.439c0 1.26-.99 2.25-2.25 2.25-1.215 0-2.205-.99-2.205-2.25V161.57c0-1.215.99-2.205 2.205-2.205 1.26 0 2.25.99 2.25 2.205v10.576a9.81 9.81 0 0 1 5.445-1.621c5.49 0 9.945 4.455 9.945 9.901zm25.245 1.394c0 1.215-.99 2.205-2.25 2.205h-15.524c.945 2.699 3.465 4.635 6.479 4.635 1.035 0 2.88-.09 5.04-1.484 1.035-.676 2.43-.045 2.97 1.033.54 1.125-.045 2.295-1.08 2.971-2.97 1.98-5.265 1.936-6.93 1.936-6.255 0-11.294-5.086-11.294-11.295 0-6.254 5.04-11.295 11.294-11.295 5.444-.001 11.295 3.96 11.295 11.294zm-17.775-2.25h13.004c-.945-3.15-3.825-4.59-6.525-4.59-3.014 0-5.534 1.936-6.479 4.59zm52.152.225c.045.09.045.135.045.225v10.936c0 1.26-1.034 2.25-2.249 2.25-1.216 0-2.205-.99-2.205-2.25v-11.341c0-2.52-2.07-4.545-4.59-4.545-2.521 0-4.59 2.025-4.59 4.545v11.34c0 1.26-.99 2.25-2.205 2.25s-2.25-.99-2.25-2.25v-11.34a4.532 4.532 0 0 0-4.545-4.545c-2.52 0-4.59 2.025-4.59 4.545v11.34c0 1.26-.99 2.25-2.205 2.25-1.26 0-2.25-.99-2.25-2.25v-11.34c0-4.949 4.05-9 9.045-9 2.7 0 5.13 1.17 6.795 3.105a8.9 8.9 0 0 1 6.795-3.105c4.994 0 9.044 4.051 9.044 9 0 .09 0 .135-.045.18zm19.083 13.365c-1.215 0-2.249-1.035-2.249-2.25v-27.045c0-1.26 1.034-2.295 2.249-2.295h6.525c2.385 0 4.635.496 6.75 1.396 2.024.898 3.824 2.203 5.265 3.869a15.494 15.494 0 0 1 3.194 5.625c.675 2.16.9 4.41.63 6.75-.449 3.824-2.295 7.334-5.175 9.943a15.897 15.897 0 0 1-10.529 4.006h-6.66zm6.66-4.5a11.286 11.286 0 0 0 11.205-9.945c.404-3.375-.54-6.523-2.655-8.908-2.16-2.387-5.265-3.736-8.685-3.736h-4.275v22.59h4.41zm40.68-6.66v8.82c0 1.305-.945 2.25-2.25 2.25-.9 0-2.16-.945-2.16-2.25-1.936 1.619-4.096 2.25-6.66 2.25-6.344 0-11.384-4.725-11.384-11.07 0-6.344 5.041-11.385 11.384-11.385 6.345 0 11.07 5.041 11.07 11.385zm-4.41 0c0-3.779-2.881-6.975-6.66-6.975s-6.974 3.195-6.974 6.975 3.194 6.66 6.974 6.66 6.66-2.881 6.66-6.66zm20.654-9.225c0 1.215-.99 2.25-2.25 2.25a6.838 6.838 0 0 0-6.84 6.84v9.045c0 1.215-.99 2.25-2.205 2.25a2.257 2.257 0 0 1-2.25-2.25v-9.045c0-6.254 5.086-11.295 11.295-11.295 1.26 0 2.25.991 2.25 2.205zm20.203 19.709a2.084 2.084 0 0 1-1.395.541c-.674 0-1.305-.271-1.709-.811l-8.551-10.26-1.395.945v7.875c0 1.26-1.035 2.25-2.25 2.25s-2.205-.99-2.205-2.25v-29.16c0-1.215.99-2.205 2.205-2.205s2.25.99 2.25 2.205v16.02l10.215-6.705c.945-.764 2.34-.674 3.15.271.764.945.629 2.385-.316 3.148l-7.875 5.176 8.191 9.855c.765.945.63 2.342-.315 3.105z"/>
  <path fill="#1F1F23" d="M537.716 193.07c-1.035.225-2.43-.271-2.971-1.621l-1.619-4.59h-10.979l-1.891 4.59c-.225 1.035-1.08 1.621-2.16 1.621h-.494c-1.352-.586-1.891-1.891-1.621-2.971l9.631-26.818c.27-.855 1.078-1.621 2.203-1.621 1.08 0 1.846.766 2.115 1.621l9.135 26.818c.497 1.081 0 2.385-1.349 2.971zm-5.94-10.756l-3.961-11.52-4.049 11.52h8.01zm21.106-9.539c0 1.215-.99 2.25-2.25 2.25h-3.195v15.885c0 1.215-.99 2.25-2.25 2.25-1.215 0-2.205-1.035-2.205-2.25v-15.885h-3.238c-1.217 0-2.205-1.035-2.205-2.25s.988-2.205 2.205-2.205h3.238v-9c0-1.215.99-2.205 2.205-2.205 1.26 0 2.25.99 2.25 2.205v9h3.195c1.26 0 2.25.991 2.25 2.205zm-.09 9.045c0-6.254 5.086-11.295 11.295-11.295a11.273 11.273 0 0 1 11.295 11.295c0 6.209-5.039 11.295-11.295 11.295-6.209 0-11.295-5.086-11.295-11.295zm4.455 0c0 3.734 3.061 6.84 6.84 6.84s6.84-3.105 6.84-6.84c0-3.779-3.061-6.84-6.84-6.84s-6.84 3.061-6.84 6.84zm52.334-2.025c.045.09.045.135.045.225v10.936c0 1.26-1.035 2.25-2.25 2.25s-2.205-.99-2.205-2.25v-11.341c0-2.52-2.07-4.545-4.59-4.545s-4.59 2.025-4.59 4.545v11.34c0 1.26-.99 2.25-2.205 2.25s-2.25-.99-2.25-2.25v-11.34a4.531 4.531 0 0 0-4.545-4.545c-2.52 0-4.59 2.025-4.59 4.545v11.34c0 1.26-.99 2.25-2.205 2.25-1.26 0-2.25-.99-2.25-2.25v-11.34c0-4.949 4.051-9 9.045-9a8.9 8.9 0 0 1 6.795 3.105 8.904 8.904 0 0 1 6.795-3.105c4.994 0 9.045 4.051 9.045 9 0 .09 0 .135-.045.18zm16.516 2.025v-17.639c0-1.26.99-2.25 2.205-2.25 1.26 0 2.25.99 2.25 2.25v17.639c0 3.779 3.061 6.84 6.84 6.84s6.84-3.061 6.84-6.84v-17.639c0-1.26.99-2.25 2.205-2.25 1.26 0 2.25.99 2.25 2.25v17.639c0 6.254-5.086 11.295-11.295 11.295s-11.295-5.041-11.295-11.295zm25.289 9.09v-27.18c0-1.215.99-2.205 2.25-2.205 1.215 0 2.205.99 2.205 2.205v27.18c0 1.26-.99 2.25-2.205 2.25-1.26 0-2.25-.99-2.25-2.25z"/>
  <g fill-rule="evenodd" clip-rule="evenodd" fill="#1F1F23">
    <path d="M444.705 141.795c-18.951-.516-34.582-6.99-47.737-19.621-3.937-3.777-4.499-7.246-.978-11.549 3.068-3.75 5.746-7.814 8.706-11.656 3.61-4.686 5.591-4.625 9.361.117.629.791 1.202 1.627 1.826 2.42 3.673 4.672 5.838 4.758 9.395.109 4.053-5.295 7.966-10.695 11.901-16.08 2.88-3.941 5.717-4.066 8.667-.084 5.65 7.633 11.516 15.115 16.928 22.914 3.691 5.32 8.252 7.99 14.791 7.525 4.023-.283 8.084-.055 12.127-.033 1.631.008 3.439-.02 4.275 1.652 1.049 2.09-.633 3.426-1.895 4.656-11.4 11.117-24.971 17.654-40.883 19.16-2.411.23-4.835.353-6.484.47z"/>
    <path d="M444.482 6.795c41.614-.08 73.429 37.316 66.671 78.486-.402 2.449 0 5.941-2.939 6.826-3.256.979-4.18-2.557-5.645-4.541-4.691-6.344-9.164-12.852-13.842-19.205-4.201-5.701-8.359-5.715-12.588-.129-2.318 3.064-4.416 6.295-6.777 9.328-4.15 5.334-8.113 5.352-12.154-.189-8.227-11.277-16.26-22.697-24.383-34.051-5.511-7.707-9.076-7.676-14.7.178-10.486 14.641-20.912 29.322-31.45 43.924-1.445 2.004-2.338 5.486-5.583 4.713-3.137-.748-2.661-4.275-3.069-6.68-6.963-41.043 24.802-78.578 66.459-78.66z"/>
  </g>
</svg>
